<svg width="74" height="75" viewBox="0 0 74 75" fill="none" xmlns="http://www.w3.org/2000/svg">
<circle cx="36.8247" cy="37.4294" r="36.7197" fill="#CCFFDA"/>
<path d="M42.0825 24.5817L34.5825 50.8317C34.2896 51.8278 33.2935 52.4138 32.2974 52.1208C31.3013 51.8278 30.7153 50.8317 31.0083 49.8356L38.5083 23.5856C38.8013 22.5895 39.7974 22.0036 40.7935 22.2966C41.7896 22.5895 42.3755 23.5856 42.0825 24.5817ZM48.1763 29.3278L54.7388 35.8903C55.5005 36.5934 55.5005 37.8239 54.7388 38.527L48.1763 45.0895C47.4731 45.8513 46.2427 45.8513 45.5396 45.0895C44.7778 44.3864 44.7778 43.1559 45.5396 42.4528L50.7544 37.1794L45.5396 31.9645C44.7778 31.2614 44.7778 30.0309 45.5396 29.3278C46.2427 28.5661 47.4731 28.5661 48.1763 29.3278ZM27.5513 31.9645L22.3364 37.1794L27.5513 42.4528C28.313 43.1559 28.313 44.3864 27.5513 45.0895C26.8481 45.8513 25.6177 45.8513 24.9146 45.0895L18.3521 38.527C17.5903 37.8239 17.5903 36.5934 18.3521 35.8903L24.9146 29.3278C25.6177 28.5661 26.8481 28.5661 27.5513 29.3278C28.313 30.0309 28.313 31.2614 27.5513 31.9645Z" fill="black"/>
</svg>
