<svg width="124" height="41" viewBox="0 0 124 41" fill="none" xmlns="http://www.w3.org/2000/svg">
<g clip-path="url(#clip0_884_12539)">
<path d="M56.2402 28V13.9082H61.6699C64.5215 13.9082 66.4648 15.793 66.4648 18.6152V18.6348C66.4648 21.4473 64.5215 23.3418 61.6699 23.3418H58.7598V28H56.2402ZM61.0449 15.9688H58.7598V21.3105H61.0449C62.8516 21.3105 63.9062 20.334 63.9062 18.6445V18.625C63.9062 16.9355 62.8516 15.9688 61.0449 15.9688ZM70.1555 16.1641C69.3938 16.1641 68.798 15.5586 68.798 14.8359C68.798 14.0938 69.3938 13.498 70.1555 13.498C70.9172 13.498 71.5031 14.0938 71.5031 14.8359C71.5031 15.5586 70.9172 16.1641 70.1555 16.1641ZM68.9348 28V17.6484H71.3664V28H68.9348ZM74.3441 28V13.9082H76.7758V21.9453H76.8246L80.6918 17.6484H83.5043L79.4027 22.1016L83.6703 28H80.8676L77.5961 23.5469L76.7758 24.4062V28H74.3441ZM86.6969 16.1641C85.9352 16.1641 85.3395 15.5586 85.3395 14.8359C85.3395 14.0938 85.9352 13.498 86.6969 13.498C87.4586 13.498 88.0445 14.0938 88.0445 14.8359C88.0445 15.5586 87.4586 16.1641 86.6969 16.1641ZM85.4762 28V17.6484H87.9078V28H85.4762Z" fill="black"/>
<path d="M91.0223 28V13.9082H96.452C99.3035 13.9082 101.247 15.793 101.247 18.6152V18.6348C101.247 21.4473 99.3035 23.3418 96.452 23.3418H93.5418V28H91.0223ZM95.827 15.9688H93.5418V21.3105H95.827C97.6336 21.3105 98.6883 20.334 98.6883 18.6445V18.625C98.6883 16.9355 97.6336 15.9688 95.827 15.9688ZM104.938 16.1641C104.176 16.1641 103.58 15.5586 103.58 14.8359C103.58 14.0938 104.176 13.498 104.938 13.498C105.699 13.498 106.285 14.0938 106.285 14.8359C106.285 15.5586 105.699 16.1641 104.938 16.1641ZM103.717 28V17.6484H106.148V28H103.717ZM109.126 28V13.9082H111.558V21.9453H111.607L115.474 17.6484H118.286L114.185 22.1016L118.452 28H115.65L112.378 23.5469L111.558 24.4062V28H109.126ZM121.479 16.1641C120.717 16.1641 120.121 15.5586 120.121 14.8359C120.121 14.0938 120.717 13.498 121.479 13.498C122.241 13.498 122.827 14.0938 122.827 14.8359C122.827 15.5586 122.241 16.1641 121.479 16.1641ZM120.258 28V17.6484H122.69V28H120.258Z" fill="#FF5A5F"/>
</g>
<g clip-path="url(#clip1_884_12539)">
<path d="M15.2047 25.5878L30.282 25.5075C30.3286 25.5068 30.3744 25.4935 30.4159 25.4687C30.4573 25.4439 30.4931 25.4084 30.5205 25.3649C30.5471 25.3197 30.5641 25.2679 30.5702 25.2139C30.5763 25.1598 30.5713 25.1048 30.5557 25.0534C30.5304 24.9684 30.484 24.8938 30.4223 24.8388C30.3606 24.7837 30.2863 24.7507 30.2084 24.7437L14.9954 24.3818C13.1915 24.2703 11.2531 22.5745 10.5878 20.5223L9.74413 17.9172C9.72137 17.8465 9.71045 17.7715 9.71195 17.6961C9.71212 17.6549 9.71609 17.6139 9.7238 17.5736C10.2274 15.1591 11.4 12.9971 13.0643 11.4145C14.7286 9.83201 16.7939 8.91507 18.9478 8.80245C21.1018 8.68984 23.2272 9.38767 25.0024 10.7904C26.7777 12.1931 28.1063 14.2244 28.7872 16.5769C29.529 15.9441 30.4227 15.5918 31.3446 15.5685C32.2666 15.5453 33.1713 15.8523 33.9337 16.4472C34.6961 17.042 35.2784 17.8953 35.6003 18.8891C35.9221 19.8828 35.9675 20.9679 35.7302 21.9943C39.1437 22.1399 41.8523 25.3699 41.8158 29.3091C41.8123 29.6603 41.7866 30.0109 41.7388 30.3579C41.7281 30.4384 41.6926 30.5118 41.6388 30.5647C41.585 30.6177 41.5165 30.6466 41.4458 30.6463L13.6141 30.3919C13.6113 30.3919 13.6089 30.3905 13.6061 30.3904C13.5285 30.3881 13.4535 30.3574 13.3921 30.3027C13.3307 30.2481 13.2861 30.1723 13.2646 30.0864L13.0587 29.2375C12.8133 28.2276 12.9168 27.2962 13.3508 26.616C13.7496 25.9886 14.4085 25.6236 15.2047 25.5878ZM8.35326 18.0942C8.49311 18.0955 8.63219 18.1015 8.77059 18.1104C8.81997 18.1151 8.86694 18.1369 8.90534 18.1728C8.94375 18.2088 8.97181 18.2573 8.98586 18.3119L9.55698 20.6627C9.80238 21.6726 9.69896 22.6029 9.26485 23.2835C8.86578 23.9114 8.20696 24.2755 7.41073 24.3115L4.19507 24.5026C4.1499 24.504 4.10558 24.5174 4.06558 24.5417C4.02559 24.5661 3.99099 24.6007 3.96449 24.6429C3.93745 24.6882 3.92005 24.7401 3.91371 24.7945C3.90737 24.849 3.91227 24.9043 3.92801 24.956C3.95337 25.0409 3.99965 25.1153 4.0612 25.1703C4.12276 25.2253 4.19693 25.2584 4.27468 25.2657L7.61197 25.5176C9.4239 25.6299 11.3623 27.325 12.0276 29.3772L12.2622 30.1016C12.272 30.132 12.2753 30.1646 12.2719 30.1967C12.2685 30.2289 12.2586 30.2597 12.2428 30.2866C12.2271 30.3134 12.206 30.3357 12.1814 30.3514C12.1568 30.3671 12.1293 30.3758 12.1012 30.3769C12.0981 30.3768 12.0954 30.3781 12.0923 30.3781L0.602305 30.2715C0.535666 30.2715 0.470898 30.2465 0.417821 30.2003C0.364743 30.1541 0.326248 30.0891 0.308178 30.0154C0.112174 29.1816 0.0172427 28.3204 0.0260761 27.4562C0.0746921 22.2433 3.80274 18.052 8.35326 18.0942Z" fill="#FF5A5F"/>
</g>
<defs>
<clipPath id="clip0_884_12539">
<rect width="69" height="41" fill="white" transform="translate(55)"/>
</clipPath>
<clipPath id="clip1_884_12539">
<rect width="41.8051" height="21.6546" fill="white" transform="matrix(-0.999957 -0.00927558 -0.00927558 0.999957 42.0042 9)"/>
</clipPath>
</defs>
</svg>
