<svg width="143" height="41" viewBox="0 0 143 41" fill="none" xmlns="http://www.w3.org/2000/svg">
<g clip-path="url(#clip0_1105_11990)">
<path d="M23.8958 8.87499C24.3706 8.87513 24.8395 8.97995 25.2691 9.182C25.6988 9.38405 26.0786 9.67835 26.3815 10.0439C26.6844 10.4095 26.9029 10.8374 27.0216 11.2971C27.1402 11.7568 27.1561 12.237 27.0679 12.7035C26.9798 13.1701 26.7899 13.6114 26.5117 13.9961C26.2336 14.3809 25.874 14.6996 25.4586 14.9295C25.0432 15.1594 24.5822 15.2948 24.1085 15.3262C23.6348 15.3577 23.1599 15.2842 22.7178 15.1112L16.833 20.9947C17.8004 22.3961 18.2297 24.0995 18.042 25.7919L21.4313 26.8085C21.911 26.2426 22.5709 25.8592 23.3001 25.7226C24.0293 25.586 24.7832 25.7047 25.4352 26.0586C26.0872 26.4126 26.5974 26.9802 26.8801 27.6661C27.1628 28.3519 27.2007 29.1142 26.9874 29.8248C26.7742 30.5353 26.3228 31.1508 25.7092 31.5676C25.0956 31.9845 24.3571 32.1774 23.618 32.1139C22.8789 32.0503 22.1842 31.7343 21.6507 31.2188C21.1172 30.7033 20.7775 30.0198 20.6886 29.2833L17.3006 28.2655C16.5844 29.6626 15.4255 30.7831 14.0051 31.4519C12.5847 32.1208 10.9828 32.3002 9.44961 31.9623C7.91642 31.6244 6.53835 30.7881 5.53073 29.5841C4.5231 28.3802 3.94269 26.8763 3.88017 25.3076L3.875 25.0208L3.88017 24.7354C3.93051 23.4781 4.31389 22.2567 4.9911 21.1962C5.66831 20.1356 6.61506 19.274 7.7345 18.6994L6.71667 15.3101C5.97205 15.2207 5.28184 14.8747 4.76466 14.3316C4.24748 13.7885 3.93565 13.0822 3.88275 12.3341L3.875 12.1042L3.88146 11.8923C3.91641 11.3601 4.08262 10.8449 4.36526 10.3926C4.6479 9.94034 5.03817 9.56511 5.50119 9.30044C5.96422 9.03577 6.48559 8.8899 7.01873 8.87587C7.55188 8.86184 8.0802 8.98008 8.5565 9.22003C9.03281 9.45998 9.44227 9.81416 9.7483 10.251C10.0543 10.6877 10.2474 11.1935 10.3103 11.7231C10.3732 12.2527 10.3039 12.7897 10.1087 13.286C9.91348 13.7823 9.59836 14.2225 9.1915 14.5674L10.208 17.958C11.9005 17.7703 13.6039 18.1996 15.0053 19.167L20.8888 13.2822C20.7674 12.9732 20.6947 12.6473 20.6731 12.316L20.6667 12.1042L20.6731 11.8923C20.7269 11.0742 21.0898 10.3072 21.6883 9.74692C22.2868 9.18658 23.076 8.87486 23.8958 8.87499Z" fill="#E85814"/>
</g>
<g clip-path="url(#clip1_1105_11990)">
<path d="M35.9302 26V15.4312H40.0024C42.1411 15.4312 43.5986 16.8447 43.5986 18.9614V18.9761C43.5986 21.0854 42.1411 22.5063 40.0024 22.5063H37.8198V26H35.9302ZM39.5337 16.9766H37.8198V20.9829H39.5337C40.8887 20.9829 41.6797 20.2505 41.6797 18.9834V18.9688C41.6797 17.7017 40.8887 16.9766 39.5337 16.9766ZM50.2411 26.1831C47.1503 26.1831 45.224 24.0811 45.224 20.7192V20.7046C45.224 17.3501 47.1649 15.248 50.2411 15.248C53.3246 15.248 55.2509 17.3501 55.2509 20.7046V20.7192C55.2509 24.0811 53.3319 26.1831 50.2411 26.1831ZM50.2411 24.5425C52.1527 24.5425 53.3319 23.0483 53.3319 20.7192V20.7046C53.3319 18.3608 52.1308 16.8887 50.2411 16.8887C48.3588 16.8887 47.1503 18.3535 47.1503 20.7046V20.7192C47.1503 23.0703 48.3515 24.5425 50.2411 24.5425ZM59.3299 26V17.0205H56.1658V15.4312H64.3689V17.0205H61.2122V26H59.3299ZM66.2653 26V15.4312H73.1062V17.0205H68.155V19.8696H72.8352V21.4004H68.155V24.4106H73.1062V26H66.2653ZM75.3468 26V15.4312H77.046L82.1949 22.8359H82.2389V15.4312H84.1139V26H82.4293L77.2657 18.5659H77.2291V26H75.3468ZM89.167 26V17.0205H86.0029V15.4312H94.2061V17.0205H91.0493V26H89.167ZM96.1024 26V15.4312H97.9921V26H96.1024ZM99.72 26L103.499 15.4312H105.623L109.403 26H107.418L106.524 23.2681H102.591L101.698 26H99.72ZM104.539 17.3135L103.067 21.8105H106.048L104.583 17.3135H104.539ZM111.131 26V15.4312H113.02V24.4106H117.818V26H111.131ZM119.773 26V15.4312H121.662V26H119.773ZM126.708 26V17.0205H123.544V15.4312H131.747V17.0205H128.59V26H126.708ZM136.617 26V21.8325L132.911 15.4312H134.976L137.533 20.0308H137.584L140.14 15.4312H142.205L138.499 21.8325V26H136.617Z" fill="black"/>
</g>
<defs>
<clipPath id="clip0_1105_11990">
<rect width="31" height="31" fill="white" transform="translate(0 5)"/>
</clipPath>
<clipPath id="clip1_1105_11990">
<rect width="108" height="41" fill="white" transform="translate(35)"/>
</clipPath>
</defs>
</svg>
